<?xml version="1.0" ?><!DOCTYPE svg  PUBLIC '-//W3C//DTD SVG 1.1//EN'  'http://www.w3.org/Graphics/SVG/1.1/DTD/svg11.dtd'><svg height="512px" style="shape-rendering:geometricPrecision; text-rendering:geometricPrecision; image-rendering:optimizeQuality; fill-rule:evenodd; clip-rule:evenodd" version="1.1" viewBox="0 0 512000 512000" width="512px" xml:space="preserve" xmlns="http://www.w3.org/2000/svg" xmlns:xlink="http://www.w3.org/1999/xlink"><defs><style type="text/css">
   <![CDATA[
    .fil0 {fill:#232122}
   ]]>
  </style></defs><g id="Layer_x0020_1"><path class="fil0" d="M77980 195849c-2375,6503 -7668,16497 -10743,23158 -3857,8355 -6690,16103 -9958,24835 -6084,16256 -12816,36002 -15082,54502 -12402,101303 103928,190035 212901,191467l0 31c304,-1 608,-13 912,-15 296,2 594,14 891,15l0 -31c108975,-1432 225304,-90163 212901,-191467 -2264,-18500 -8996,-38247 -15080,-54502 -3269,-8732 -6100,-16480 -9958,-24835 -3076,-6661 -8368,-16655 -10745,-23158 3501,-3755 9385,-5639 15972,-11972 15579,-14975 24137,-32231 25319,-56315 1607,-32746 -10280,-63611 -26857,-82451 -29402,-33415 -83882,-28648 -114722,3320 -18262,18932 -14144,21680 -21634,32460 -22339,-4528 -36908,-8500 -55197,-9076l0 -46 -907 20 -895 -20 0 45c-18287,576 -32856,4548 -55195,9076 -7491,-10779 -3373,-13528 -21635,-32459 -30839,-31969 -85318,-36735 -114721,-3320 -16578,18840 -28465,49703 -26857,82451 1182,24084 9741,41339 25318,56314 6588,6333 12471,8218 15972,11973zm178028 279860c-91142,-1283 -176783,-63097 -196567,-132734 -7667,-26988 -4755,-46813 2708,-72349 10970,-37532 29438,-78025 52160,-108578 731,-819 1447,-1759 2143,-2837 5068,-6596 8960,-11319 12369,-15097 28146,-28611 75716,-50884 75716,-50884 18357,-6078 35608,-8648 51455,-8920 15852,270 33109,2841 51473,8921 0,0 47570,22273 75716,50883 3407,3778 7299,8502 12367,15098 697,1077 1411,2017 2144,2836 22722,30554 41190,71046 52159,108578 7463,25536 10375,45360 2708,72349 -19781,69633 -105413,131444 -196550,132734zm115659 -127276c6321,2532 13070,3289 19191,-1865 17708,-14915 17910,-90747 -22978,-115344 -40093,-24118 -108050,2489 -61237,64523l59 78c607,804 1246,1617 1892,2432 2557,3170 5454,6328 8567,9428l493 484c21806,21513 53721,40095 54014,40265zm-116568 -32099l0 19c-16128,293 -49804,4163 -43406,21129 3613,9579 22086,18249 35473,24340 9488,3309 8179,3311 17668,0 13387,-6091 31860,-14761 35473,-24339 6398,-16967 -27278,-20837 -43407,-21130l0 -20c-296,1 -601,4 -914,7 -304,-4 -600,-6 -888,-6zm-27959 85943l-8 -2c-3485,-356 -7196,-1298 -11223,-3012 -5207,-2219 -7081,-5699 -11047,-2956 -4344,4841 23975,30311 50169,31507l69 2 0 37c304,0 608,-2 913,-8 296,6 593,8 889,8l0 -35 70 -4c26193,-1195 54513,-26665 50169,-31507 -3966,-2743 -5839,738 -11048,2956 -4025,1714 -7736,2656 -11222,3012l-8 2c-7150,1919 -50571,1919 -57722,0zm107861 -111852c8263,5813 2413,21964 -6086,17000 -7749,-4526 -3220,-23545 6086,-17000zm-136 -20560c16824,6514 11254,46779 -6463,40511 -15289,-5409 -10954,-47255 6463,-40511zm-194531 78567c-6322,2531 -13070,3289 -19191,-1865 -17708,-14915 -17910,-90748 22977,-115344 40093,-24119 108050,2489 61238,64523l-59 78c-608,804 -1246,1617 -1892,2432 -2558,3170 -5454,6327 -8568,9426l-491 485c-21806,21513 -53721,40094 -54014,40265zm36666 -58008c-8264,5812 -2413,21963 6085,17000 7750,-4526 3220,-23547 -6085,-17000zm135 -20561c-16822,6515 -11254,46780 6463,40512 15291,-5409 10954,-47255 -6463,-40512z"/></g></svg>